<svg width="24" height="24" viewBox="0 0 24 24" fill="none" xmlns="http://www.w3.org/2000/svg">
    <path d="M14.7557 3.79986L20.2353 3.79986" stroke="white" stroke-width="1.5"
        stroke-linecap="round" />
    <path d="M15.8466 6.29986L20.2353 6.29986" stroke="white" stroke-width="1.5"
        stroke-linecap="round" />
    <path d="M14.0598 8.79986L20.2353 8.79986" stroke="white" stroke-width="1.5"
        stroke-linecap="round" />
    <path d="M16.74 11.2999L20.2353 11.2999" stroke="white" stroke-width="1.5"
        stroke-linecap="round" />
    <path
        d="M14.5417 18.0915C14.5417 20.9581 12.2797 23.25 9.52823 23.25C6.77679 23.25 4.51471 20.9581 4.51471 18.0915C4.51471 16.4551 5.25403 15.0014 6.40327 14.0575C6.60264 13.8937 6.70242 13.6779 6.75528 13.5382C6.81444 13.3819 6.85515 13.2092 6.88546 13.0392C6.94632 12.6979 6.98152 12.2719 7.00357 11.8042C7.0417 10.9957 7.04374 9.97553 7.0459 8.89083C7.04625 8.71722 7.0466 8.54196 7.0471 8.36565C7.05077 7.07585 7.06237 5.71438 7.13569 4.45895C7.2096 3.19342 7.34398 2.08552 7.5759 1.28652L7.57592 1.28644C7.5763 1.28507 7.57975 1.27284 7.60136 1.24842C7.62541 1.22122 7.6687 1.18297 7.74117 1.13883C7.89124 1.04743 8.10752 0.966032 8.36781 0.901554C8.88779 0.772744 9.42128 0.75 9.52823 0.75C9.63549 0.75 10.1702 0.772753 10.6913 0.901624C10.9522 0.966136 11.1691 1.04761 11.3196 1.13913C11.3924 1.18333 11.4358 1.22165 11.4599 1.24889C11.4816 1.27334 11.485 1.28551 11.4853 1.28673L11.4853 1.2868C11.7176 2.08577 11.8521 3.19373 11.9261 4.45947C11.9994 5.7151 12.0109 7.07684 12.0145 8.36698C12.015 8.54402 12.0153 8.72001 12.0156 8.89432C12.0177 9.97857 12.0196 10.9983 12.0576 11.8067C12.0796 12.2746 12.1148 12.7009 12.1756 13.0423C12.206 13.2124 12.2467 13.3853 12.3058 13.5416C12.3587 13.6815 12.4584 13.8971 12.6573 14.0609C13.8042 15.0049 14.5417 16.457 14.5417 18.0915Z"
        stroke="white" stroke-width="1.5" />
    <circle cx="9.52824" cy="18.2365" r="3.45045" fill="white" />
    <path d="M9.52824 8.79986V16.5877" stroke="white" stroke-width="1.5" stroke-linecap="round" />
</svg>