<svg width="24" height="24" viewBox="0 0 24 24" fill="none" xmlns="http://www.w3.org/2000/svg">
    <g clip-path="url(#clip0_1_56)">
        <path d="M22.9977 12.4377H1.00227" stroke="white" stroke-width="1.5" stroke-linecap="round" />
        <path
            d="M23.0017 12.4154L20.902 5.25591C20.7491 4.73433 19.9911 4.79701 19.9259 5.33663L17.9059 22.0499C17.8349 22.6374 16.9823 22.6362 16.913 22.0484L15.2261 7.73989C15.1964 7.48814 14.9831 7.29843 14.7296 7.29843H13.5843C13.3618 7.29843 13.166 7.15133 13.1041 6.93756L11.6067 1.769C11.4531 1.23885 10.6802 1.31193 10.6287 1.86147L8.83 21.0516C8.77781 21.6085 7.99018 21.6727 7.84849 21.1317L6.83961 17.2796C6.782 17.0596 6.58327 16.9062 6.35592 16.9062H4.95428C4.69806 16.9062 4.4833 16.7125 4.45693 16.4577L3.35063 5.76348C3.29164 5.19324 2.47556 5.15464 2.36302 5.71677L1.02468 12.4012"
            stroke="white" stroke-width="1.5" stroke-linecap="round" />
        <path
            d="M12.16 17.7683L12.14 17.5763L12.588 17.4843L12.428 17.6323C12.4333 17.611 12.44 17.5737 12.448 17.5203C12.4587 17.467 12.468 17.411 12.476 17.3523C12.4867 17.291 12.492 17.2443 12.492 17.2123V16.3243C12.492 16.2897 12.488 16.2457 12.48 16.1923C12.4747 16.1363 12.4667 16.079 12.456 16.0203C12.448 15.9617 12.44 15.9123 12.432 15.8723L12.588 16.0563L12.148 15.9803L12.168 15.7723H12.744L12.82 15.8443C12.8173 15.8843 12.8133 15.9403 12.808 16.0123C12.8053 16.0817 12.8027 16.155 12.8 16.2323C12.7973 16.3097 12.796 16.3803 12.796 16.4443V17.0923C12.796 17.1963 12.8 17.303 12.808 17.4123C12.816 17.5217 12.824 17.6003 12.832 17.6483L12.684 17.5003L13.136 17.5403L13.108 17.7483H12.6C12.5733 17.7483 12.5347 17.7497 12.484 17.7523C12.4333 17.755 12.3787 17.7577 12.32 17.7603C12.264 17.763 12.2107 17.7657 12.16 17.7683ZM12.584 15.3803C12.5093 15.3803 12.452 15.3577 12.412 15.3123C12.372 15.267 12.352 15.207 12.352 15.1323C12.352 15.055 12.372 14.9937 12.412 14.9483C12.452 14.9003 12.5093 14.8763 12.584 14.8763C12.6587 14.8763 12.716 14.899 12.756 14.9443C12.796 14.987 12.816 15.0497 12.816 15.1323C12.816 15.207 12.796 15.267 12.756 15.3123C12.7187 15.3577 12.6613 15.3803 12.584 15.3803Z"
            fill="white" />
    </g>
    <defs>
        <clipPath id="clip0_1_56">
            <rect width="24" height="24" fill="white" />
        </clipPath>
    </defs>
</svg>